<svg width="30" height="70" viewBox="0 0 30 70" fill="none" xmlns="http://www.w3.org/2000/svg">
<g clip-path="url(#clip0)">
<path d="M30.003 35.4912C30.003 35.8034 29.8035 36.1551 29.5049 36.3897L6.28209 54.593C5.98279 54.8276 5.53488 54.9834 5.13581 54.9834C4.73674 54.9834 4.28884 54.827 3.98954 54.593L1.49814 52.6401C1.19884 52.4055 1 52.0932 1 51.7416C1 51.4293 1.19953 51.0777 1.49814 50.843L21.0826 35.4917L1.49814 20.1404C1.19884 19.9058 1 19.5547 1 19.2419C1 18.9291 1.19953 18.578 1.49814 18.3434L3.98954 16.3905C4.28884 16.1559 4.73674 16 5.13581 16C5.53488 16 5.98279 16.1564 6.28209 16.3905L29.5049 34.5938C29.8042 34.8284 30.003 35.1795 30.003 35.4923V35.4912Z" fill="#666666"/>
</g>
<defs>
<clipPath id="clip0">
<rect width="30" height="70" fill="white"/>
</clipPath>
</defs>
</svg>
